<?xml version="1.0" standalone="no"?>
<!DOCTYPE svg PUBLIC "-//W3C//DTD SVG 20010904//EN"
 "http://www.w3.org/TR/2001/REC-SVG-20010904/DTD/svg10.dtd">
<svg version="1.0" xmlns="http://www.w3.org/2000/svg"
 width="600.000000pt" height="375.000000pt" viewBox="0 0 600.000000 375.000000"
 preserveAspectRatio="xMidYMid meet">

<g transform="translate(0.000000,375.000000) scale(0.100000,-0.100000)"
fill="#000000" stroke="none">
<path d="M0 3570 c0 -166 5 -202 25 -169 4 5 17 9 30 7 12 -1 29 3 38 10 13
11 20 11 43 -1 l27 -14 -27 -7 c-34 -8 -28 -32 7 -28 14 1 28 -2 32 -8 3 -6
-4 -10 -17 -10 -19 0 -20 -2 -8 -10 11 -8 8 -9 -12 -4 -21 5 -26 2 -25 -13 1
-10 -5 -18 -13 -18 -8 0 -24 -8 -34 -17 -11 -10 -27 -18 -37 -18 -9 0 -20 -7
-23 -16 -3 -9 -6 -136 -6 -283 l0 -268 151 -34 c83 -18 158 -38 165 -44 11 -8
6 -41 -27 -185 -23 -96 -43 -177 -45 -179 -2 -2 -44 4 -94 15 -66 13 -93 15
-101 7 -14 -14 -3 -33 18 -33 10 0 13 -6 9 -16 -3 -9 -6 -20 -6 -26 0 -7 -14
-8 -35 -5 l-35 6 0 -92 0 -92 24 68 c28 77 38 92 77 113 32 16 146 19 169 4 8
-5 11 -10 7 -10 -4 0 -2 -6 5 -14 7 -8 16 -12 21 -9 4 2 7 2 7 -1 0 -3 -21
-14 -46 -25 l-46 -21 7 -67 c4 -38 8 -69 9 -70 1 -1 7 2 14 6 7 4 13 27 15 52
1 26 10 52 20 64 10 11 36 48 57 82 21 34 49 67 62 74 l23 12 -20 -23 c-16
-18 -21 -39 -24 -112 -3 -83 -1 -91 20 -115 13 -14 42 -34 64 -45 l40 -20 -30
27 c-18 16 -23 24 -12 21 14 -5 16 -1 11 22 -4 15 -11 35 -16 44 -5 10 -4 76
3 160 19 231 18 252 -8 256 -25 4 -39 38 -48 117 -8 67 11 96 49 76 17 -10 26
-23 26 -39 0 -36 11 -20 32 46 10 33 13 58 8 60 -6 2 -6 11 1 24 7 12 7 18 1
14 -6 -4 -8 2 -5 14 5 19 7 20 29 5 21 -14 25 -14 30 -1 3 8 12 12 20 9 8 -3
14 0 14 6 0 6 10 16 23 21 12 5 34 19 49 31 24 20 30 21 70 10 24 -7 59 -16
78 -21 51 -13 121 -91 116 -131 -2 -16 1 -29 6 -29 5 0 6 -5 3 -10 -4 -7 -13
-7 -26 0 -15 8 -19 8 -17 -2 2 -10 -10 -12 -44 -10 -59 5 -64 -13 -9 -28 21
-5 51 -20 66 -32 l28 -22 -7 34 c-6 33 -5 34 8 15 12 -18 12 -31 2 -88 -7 -37
-10 -67 -6 -67 5 0 11 11 14 25 9 36 30 32 23 -5 -9 -43 -50 -130 -62 -130 -5
0 -27 -24 -49 -52 -30 -40 -39 -63 -42 -101 -2 -26 -6 -52 -9 -58 -4 -5 -8
-22 -11 -37 -3 -15 -11 -43 -19 -63 -10 -27 -11 -39 -2 -48 6 -6 8 -11 4 -11
-4 0 -1 -13 8 -30 21 -41 47 -38 81 11 l28 41 -25 72 c-14 39 -30 80 -34 91
-8 18 -7 19 8 6 9 -7 17 -19 17 -26 0 -15 56 -65 72 -65 6 0 8 10 4 25 -5 20
-3 25 14 25 11 0 20 -4 20 -10 0 -5 9 -10 20 -10 13 0 20 7 20 20 0 11 3 20 7
20 4 0 70 14 146 31 89 20 152 40 174 55 40 27 118 31 108 5 -15 -38 -55 -192
-55 -211 0 -11 -7 -31 -15 -44 -15 -22 -14 -24 5 -29 17 -4 20 0 20 29 0 22
13 54 40 95 22 34 40 67 40 73 0 20 46 101 56 99 17 -3 15 56 -3 115 -13 44
-30 71 -75 117 -32 33 -71 85 -86 115 -24 49 -27 67 -27 155 l0 100 29 5 c38
6 34 26 -5 22 -36 -3 -39 20 -10 76 27 52 68 87 126 108 66 22 91 15 161 -46
103 -90 130 -162 113 -300 -10 -87 -54 -186 -99 -224 -17 -13 -30 -27 -30 -30
0 -11 24 -6 40 9 16 14 17 14 13 -12 -3 -20 -2 -24 5 -14 7 10 13 5 21 -22 15
-45 64 -87 101 -87 27 0 67 15 120 45 32 19 66 19 121 0 59 -20 172 -128 200
-189 11 -25 24 -46 29 -46 13 0 28 32 23 50 -4 12 -3 13 5 1 8 -11 12 -10 21
7 6 11 11 28 11 36 0 28 17 17 95 -59 43 -41 81 -75 85 -75 4 0 27 -16 50 -35
41 -34 60 -43 60 -27 0 4 -23 21 -52 37 -92 54 -157 140 -142 187 3 11 7 88 8
171 2 134 4 152 20 161 10 6 32 23 49 38 17 15 56 33 92 42 83 21 174 6 213
-36 27 -28 58 -39 47 -15 -3 6 0 4 7 -5 11 -16 15 -15 50 4 21 12 40 29 43 39
8 25 91 99 111 99 15 0 16 9 10 71 -3 39 -15 87 -25 107 -10 20 -22 52 -26 69
-4 21 -17 39 -35 50 -16 9 -33 27 -39 40 -12 26 -12 27 23 13 17 -6 26 -6 26
0 0 6 -5 10 -11 10 -7 0 -8 12 -4 33 7 32 7 32 -13 13 -21 -18 -21 -18 -18 20
2 22 4 41 5 43 1 2 10 -4 21 -14 18 -17 19 -16 24 6 3 13 4 39 4 57 -1 24 7
42 29 65 17 18 28 38 26 45 -3 6 1 12 9 12 7 0 25 6 40 14 49 26 199 37 206
15 2 -5 10 -9 18 -9 8 0 14 -4 14 -10 0 -5 6 -10 13 -10 7 0 21 -12 32 -27 11
-14 29 -35 39 -45 13 -12 21 -34 22 -66 1 -26 3 -49 3 -51 1 -3 8 4 16 15 13
16 16 17 25 4 7 -11 5 -16 -5 -18 -13 -3 -13 -5 0 -18 8 -9 15 -23 15 -32 0
-13 -3 -11 -16 6 -8 12 -20 20 -25 16 -6 -3 -5 -12 3 -22 10 -12 10 -16 1 -19
-20 -7 -15 -31 7 -38 11 -3 20 -10 20 -15 0 -12 -36 -31 -43 -24 -3 3 -11 -14
-17 -37 -43 -168 -58 -180 -229 -178 -98 1 -92 -20 13 -43 l78 -16 50 26 c37
20 52 23 55 15 3 -7 11 -13 18 -13 8 0 44 -21 82 -46 64 -45 116 -66 280 -113
105 -31 149 -69 203 -174 l45 -88 46 6 47 7 18 -54 c27 -81 92 -218 104 -218
16 0 13 12 -40 129 -27 61 -50 121 -50 133 1 15 8 4 19 -27 10 -27 37 -89 59
-137 l40 -86 43 9 c51 12 162 76 156 92 -2 6 -20 19 -40 30 -20 10 -51 37 -69
60 -30 37 -33 48 -33 109 0 50 -4 71 -15 78 -13 8 -12 10 3 10 9 0 17 8 18 18
0 9 2 26 4 37 3 11 7 39 10 63 4 40 3 44 -23 53 -19 7 -28 17 -30 35 -1 17 2
23 11 18 9 -5 9 -4 0 7 -18 19 -17 123 1 138 11 10 19 8 35 -6 28 -24 26 -57
-4 -77 -14 -9 -25 -22 -25 -29 1 -18 29 -52 37 -44 4 4 1 13 -5 19 -18 18 -14
42 8 55 11 7 28 30 39 50 11 21 20 32 21 25 0 -7 4 -11 9 -8 5 3 11 0 14 -7 3
-9 16 -12 35 -9 17 2 38 -1 49 -7 15 -9 11 -10 -24 -11 -51 0 -55 -14 -10 -35
l32 -15 -33 5 c-32 5 -32 4 -16 -20 8 -13 23 -26 32 -28 13 -4 12 -5 -3 -6
-12 0 -38 8 -60 19 -45 23 -45 23 -45 11 0 -13 82 -51 109 -51 12 0 19 -4 16
-10 -10 -17 22 -11 36 7 8 9 13 19 12 22 -1 3 1 7 3 9 2 1 2 -1 0 -4 -4 -5 5
-17 51 -66 9 -10 13 -21 10 -25 -4 -3 -7 -1 -7 5 0 18 -37 14 -44 -4 -5 -12
-2 -15 13 -11 15 3 17 0 13 -17 -5 -19 -4 -20 11 -6 44 40 44 40 96 28 40 -9
48 -14 40 -25 -6 -7 -8 -13 -3 -13 4 0 3 -5 -4 -12 -14 -14 -16 -32 -2 -23 15
9 0 -26 -27 -62 -13 -18 -28 -33 -34 -33 -5 0 -32 -16 -60 -35 -78 -54 -134
-43 -207 40 -23 27 -44 46 -47 43 -9 -8 33 -83 62 -110 15 -14 48 -33 73 -41
37 -12 45 -19 46 -41 1 -14 -4 -26 -9 -26 -6 0 -8 -2 -5 -5 3 -3 17 -1 31 4
21 8 25 7 20 -4 -3 -8 -10 -12 -16 -8 -6 3 -7 1 -3 -6 4 -6 -4 -25 -18 -42
-33 -39 -33 -48 5 -61 20 -7 28 -15 25 -25 -4 -11 -1 -13 14 -8 14 4 20 2 20
-8 0 -8 8 -14 17 -13 10 0 18 -3 18 -9 1 -20 24 -50 32 -42 4 5 10 56 11 113
2 57 6 104 9 104 2 0 23 -13 46 -29 23 -16 71 -43 107 -60 115 -57 130 -66
130 -81 0 -8 9 -28 20 -45 11 -16 20 -38 20 -47 0 -10 5 -18 11 -18 5 0 7 4 4
10 -10 17 7 11 20 -7 13 -17 9 -53 -6 -53 -5 0 -9 6 -9 14 0 8 -4 17 -8 20 -5
3 -6 -8 -4 -25 3 -21 -4 -41 -23 -69 -15 -21 -25 -45 -22 -52 4 -8 6 -7 6 4 1
19 67 98 82 98 21 0 18 -48 -6 -100 -14 -30 -23 -47 -21 -37 4 11 2 16 -5 11
-6 -3 -8 -15 -6 -26 3 -11 3 -17 0 -14 -3 3 -12 -2 -21 -10 -12 -13 -16 -13
-23 -2 -15 24 -10 -15 6 -42 8 -14 14 -37 15 -52 0 -20 8 -32 30 -43 16 -8 29
-19 29 -23 -1 -4 -1 -24 0 -44 1 -42 15 -50 26 -15 7 21 7 21 14 -7 8 -40 48
-53 105 -35 22 7 48 19 57 26 8 7 24 13 33 13 20 0 20 2 -7 100 -11 40 -13 75
-8 130 7 67 5 81 -17 128 -50 110 -52 279 -3 368 35 65 130 133 163 117 13 -6
39 -16 58 -23 97 -34 120 -52 156 -124 24 -49 34 -82 34 -115 0 -71 -35 -195
-69 -244 -37 -55 -62 -196 -40 -224 12 -14 12 -16 0 -8 -11 6 -13 4 -8 -8 3
-9 2 -19 -3 -22 -17 -11 -12 -92 6 -99 9 -3 20 -4 24 -1 5 3 30 0 55 -6 66
-17 134 3 136 40 2 23 2 24 6 4 5 -27 21 -30 30 -5 8 23 54 61 75 62 9 0 20 5
23 10 3 6 15 10 26 10 19 0 19 17 19 1015 l0 1015 -3000 0 -3000 0 0 -180z
m3722 87 c63 -28 103 -74 113 -129 6 -33 11 -38 36 -38 51 0 137 -39 168 -77
33 -40 53 -105 45 -149 -15 -82 -80 -160 -147 -173 -21 -5 -33 -14 -35 -26 -6
-30 -42 -65 -87 -86 -43 -20 -110 -25 -120 -9 -4 6 6 10 22 10 34 0 88 31 103
61 7 12 10 36 8 54 -4 31 -2 33 34 39 101 16 180 166 139 265 -20 46 -87 75
-159 68 -32 -3 -68 -9 -81 -13 -23 -7 -24 -5 -18 28 19 121 -86 215 -208 188
-25 -6 -57 -18 -71 -26 -13 -9 -24 -12 -24 -7 0 9 36 27 90 47 31 12 139 -4
192 -27z m-1276 -63 c0 -28 -1 -32 -9 -17 -5 10 -17 26 -25 36 -14 16 -13 17
9 17 21 0 24 -5 25 -36z m78 11 c38 -11 87 -43 186 -121 152 -119 190 -153
190 -168 0 -12 -132 -180 -150 -191 -26 -16 -3 17 65 95 41 47 74 90 72 97 -3
15 -313 263 -330 263 -7 0 -26 -13 -42 -30 -32 -33 -50 -38 -59 -14 -4 11 -1
14 12 10 19 -6 69 30 58 42 -4 4 -22 12 -39 19 -46 17 -24 16 37 -2z m-193
-62 c-12 -23 -71 -79 -71 -69 0 7 71 85 78 86 1 0 -2 -8 -7 -17z m49 -73 c-17
-22 -36 -40 -42 -40 -12 0 53 78 65 79 5 1 -6 -17 -23 -39z m155 8 c-75 -84
-110 -118 -119 -118 -6 0 23 34 64 75 76 77 107 100 55 43z m-111 -40 c-40
-46 -54 -56 -54 -40 0 10 76 82 86 82 4 0 -11 -19 -32 -42z m121 -43 c-37 -42
-70 -74 -72 -71 -3 3 25 39 63 80 37 42 69 74 72 71 3 -2 -26 -39 -63 -80z
m3245 45 c41 -11 96 -25 123 -31 26 -6 47 -14 47 -18 0 -13 -188 -193 -193
-185 -5 9 -48 168 -61 227 -8 32 -11 32 84 7z m-3162 -37 c-35 -37 -62 -68
-93 -108 -12 -16 -15 -16 -13 -4 4 20 118 149 132 149 6 0 -6 -17 -26 -37z
m-898 4 c0 -2 -14 -16 -32 -33 -30 -28 -30 -17 0 19 13 15 32 23 32 14z m934
-49 c-69 -98 -77 -107 -92 -113 -11 -4 -11 1 3 22 22 34 115 143 122 143 3 0
-12 -24 -33 -52z m-789 2 c-7 -12 -138 -90 -151 -90 -11 0 137 99 149 100 5 0
5 -4 2 -10z m863 -19 c-13 -16 -41 -51 -63 -79 -22 -28 -43 -51 -47 -52 -20
-1 -3 25 58 90 68 72 93 92 52 41z m-1122 -17 c19 -19 34 -40 34 -45 0 -5 -18
9 -39 32 -22 22 -44 38 -49 35 -6 -3 -20 -31 -33 -61 -26 -63 -39 -70 -39 -20
0 39 -13 44 -44 18 -15 -13 -13 -9 4 11 33 38 79 66 109 66 14 0 37 -14 57
-36z m2134 7 c14 -26 13 -121 -1 -121 -6 0 -13 9 -16 20 -7 25 -39 22 -35 -3
2 -9 -3 -17 -11 -17 -19 0 -30 27 -14 34 7 2 4 5 -6 5 -17 1 -17 3 -3 23 9 12
16 32 16 44 0 11 3 24 7 27 13 14 53 6 63 -12z m-937 -13 c-82 -108 -143 -174
-143 -153 0 7 140 165 147 165 3 0 1 -6 -4 -12z m-1414 -71 c-14 -12 -94 -77
-178 -145 -96 -78 -151 -130 -150 -140 4 -48 -2 -102 -13 -102 -6 0 -8 3 -5 7
11 10 -23 42 -39 36 -26 -10 -14 28 19 58 57 53 378 309 387 309 3 -1 -7 -11
-21 -23z m451 -31 c0 -2 -9 -6 -20 -9 -11 -3 -18 -1 -14 4 5 9 34 13 34 5z
m1690 -41 c0 -8 -7 -15 -15 -15 -13 0 -14 3 -3 15 16 18 18 18 18 0z m1112
-102 c25 -12 57 -24 70 -28 61 -20 77 -45 49 -79 -7 -9 -11 -24 -8 -35 2 -10
2 -23 -2 -29 -10 -16 -120 12 -181 47 -30 17 -70 31 -87 31 -18 0 -33 2 -33 5
0 3 14 18 31 34 17 17 28 35 24 40 -3 6 -1 11 5 11 7 0 10 6 7 13 -7 20 72 14
125 -10z m-262 1 c-59 -8 -140 -8 -140 -1 0 4 37 6 83 6 45 -1 71 -3 57 -5z
m660 -4 c0 -5 -2 -10 -4 -10 -3 0 -8 5 -11 10 -3 6 -1 10 4 10 6 0 11 -4 11
-10z m874 -61 l48 -11 -98 -99 c-54 -54 -101 -95 -105 -91 -4 4 -14 38 -24 76
-9 38 -20 79 -24 90 -5 12 -11 37 -15 57 l-6 36 87 -24 c49 -13 110 -28 137
-34z m-1667 4 c-3 -10 -5 -4 -5 12 0 17 2 24 5 18 2 -7 2 -21 0 -30z m-2077
-22 c0 -25 20 -41 51 -41 17 0 35 -9 47 -24 l19 -25 23 31 c33 45 100 71 163
63 143 -18 247 -44 247 -61 0 -3 -23 -3 -50 1 -99 14 -197 -30 -259 -115 -15
-21 -39 -72 -51 -112 -13 -40 -27 -76 -32 -79 -4 -3 -31 16 -60 43 l-51 47 16
41 c15 39 15 44 -6 101 -21 58 -56 96 -65 70 -2 -6 -10 -11 -17 -11 -18 0 -24
-43 -13 -93 16 -70 20 -114 10 -97 -31 51 -39 273 -11 291 16 10 39 -7 39 -30z
m2220 19 c0 -5 -22 -10 -50 -10 l-49 0 5 -172 c3 -95 5 -180 6 -188 1 -8 0
-24 -2 -35 -7 -46 -18 101 -19 247 -1 155 -1 157 22 161 43 8 87 7 87 -3z
m-143 -42 c-3 -8 -6 -5 -6 6 -1 11 2 17 5 13 3 -3 4 -12 1 -19z m-581 -49 c23
-25 9 -53 -29 -57 -22 -3 -25 0 -23 20 4 30 16 58 26 58 4 0 15 -9 26 -21z
m581 -21 c-3 -8 -6 -5 -6 6 -1 11 2 17 5 13 3 -3 4 -12 1 -19z m383 -42 c0 -8
-7 -16 -15 -20 -12 -4 -13 -2 -2 14 14 24 17 25 17 6z m203 -3 c18 -9 27 -18
19 -21 -7 -2 -19 2 -27 8 -11 9 -15 9 -15 1 0 -14 -37 -15 -45 -1 -8 14 3 30
21 30 8 0 29 -7 47 -17z m-3748 -13 c3 -6 -1 -7 -9 -4 -18 7 -21 14 -7 14 6 0
13 -4 16 -10z m214 -13 c12 3 12 1 -3 -11 -17 -14 -18 -20 -8 -54 18 -58 15
-165 -5 -206 -17 -36 -54 -57 -97 -55 -15 1 -11 4 11 10 46 13 55 38 55 150 0
129 -9 145 -81 141 -47 -4 -51 -6 -46 -25 6 -21 6 -21 -6 -2 -7 11 -16 23 -21
26 -10 6 75 19 130 19 18 0 32 5 32 12 0 9 3 9 11 1 6 -6 19 -9 28 -6z m2948
-129 c-2 -18 -4 -4 -4 32 0 36 2 50 4 33 2 -18 2 -48 0 -65z m519 47 c-4 -11
-12 -12 -37 -5 -50 15 -63 34 -17 26 24 -4 39 -3 44 6 10 16 18 -6 10 -27z
m84 10 c0 -22 -2 -24 -14 -13 -10 9 -11 17 -4 26 15 17 18 15 18 -13z m197
-22 c-3 -10 -5 -2 -5 17 0 19 2 27 5 18 2 -10 2 -26 0 -35z m-2882 -42 c3 -5
1 -12 -5 -16 -5 -3 -10 1 -10 9 0 18 6 21 15 7z m2658 -25 c6 -15 -16 -40 -25
-30 -8 7 2 44 12 44 4 0 10 -6 13 -14z m-2633 -66 c4 -9 11 -31 15 -50 4 -19
14 -48 22 -64 13 -26 19 -28 54 -23 46 6 50 -4 12 -23 -16 -8 -29 -15 -31 -16
-2 -1 8 -37 22 -80 34 -102 26 -107 -9 -7 -16 43 -40 105 -55 138 -26 57 -61
163 -59 182 0 4 5 -3 11 -17 5 -14 14 -32 18 -40z m2057 8 c-3 -8 -6 -5 -6 6
-1 11 2 17 5 13 3 -3 4 -12 1 -19z m-1866 -14 c16 -14 16 -19 4 -38 -8 -12
-11 -26 -7 -32 10 -15 42 -25 42 -14 0 6 -7 10 -16 10 -20 0 -14 34 7 38 13 2
18 -9 24 -53 3 -31 4 -59 1 -63 -12 -11 -73 59 -86 98 -12 36 -9 70 6 70 4 0
15 -7 25 -16z m2679 -44 c0 -5 -8 -10 -17 -10 -15 0 -16 2 -3 10 19 12 20 12
20 0z m-3245 -23 c7 -7 27 -26 45 -41 18 -15 30 -29 27 -32 -2 -3 -21 -8 -41
-11 -59 -9 -92 31 -64 77 15 24 16 24 33 7z m43 -23 c-4 -3 -12 5 -18 18 -12
22 -12 22 6 6 10 -10 15 -20 12 -24z m3157 -4 c4 -6 -5 -10 -20 -10 -15 0 -24
4 -20 10 3 6 12 10 20 10 8 0 17 -4 20 -10z m92 -3 c21 8 100 -17 119 -38 23
-25 10 -24 -26 2 -28 21 -30 21 -64 5 -20 -9 -36 -19 -36 -22 0 -2 18 -50 40
-105 22 -56 40 -107 40 -114 0 -19 -46 -26 -110 -16 l-55 9 78 1 c42 0 77 5
77 10 0 5 -12 35 -26 67 -14 33 -30 68 -34 79 -9 20 -40 124 -40 134 0 3 5 0
11 -6 6 -6 18 -9 26 -6z m-48 -118 c12 -22 21 -44 21 -49 0 -6 -45 -10 -109
-10 l-108 0 3 27 c5 51 36 77 95 83 63 6 71 2 98 -51z m-2675 -16 c8 -29 12
-53 8 -53 -4 0 -15 28 -24 61 -20 74 -6 66 16 -8z m-559 47 c19 -8 19 -9 -2
-9 -12 -1 -25 4 -28 9 -7 12 2 12 30 0z m3323 -257 c-15 -2 -42 -2 -60 0 -18
2 -6 4 27 4 33 0 48 -2 33 -4z"/>
<path d="M3767 3583 c-6 -10 -2 -72 6 -79 3 -3 15 -1 26 5 16 9 19 16 12 29
-5 9 -12 25 -15 35 -6 17 -21 23 -29 10z"/>
<path d="M4035 3328 c-3 -8 -5 -19 -4 -24 2 -5 -5 -26 -14 -48 -9 -21 -17 -41
-17 -44 0 -3 -21 -25 -46 -49 -42 -40 -50 -63 -21 -63 14 0 47 35 47 49 0 5 9
11 21 13 44 7 87 141 54 168 -12 10 -16 9 -20 -2z"/>
<path d="M3850 3076 c0 -14 -4 -28 -10 -31 -15 -9 -12 -35 4 -35 18 0 48 46
44 68 -2 9 -11 18 -21 20 -12 3 -17 -3 -17 -22z"/>
<path d="M3692 3298 c7 -19 38 -22 38 -4 0 10 -9 16 -21 16 -12 0 -19 -5 -17
-12z"/>
<path d="M2137 3004 c-8 -9 11 -44 23 -44 6 0 10 11 10 25 0 23 -18 34 -33 19z"/>
<path d="M2260 2844 c0 -8 5 -12 10 -9 6 3 10 10 10 16 0 5 -4 9 -10 9 -5 0
-10 -7 -10 -16z"/>
<path d="M2365 2590 c-3 -5 -1 -10 4 -10 6 0 11 5 11 10 0 6 -2 10 -4 10 -3 0
-8 -4 -11 -10z"/>
<path d="M3087 3354 c-25 -33 -21 -41 16 -36 l32 5 -27 -22 c-17 -14 -28 -32
-28 -47 0 -28 -2 -27 38 -13 26 9 35 8 48 -5 21 -22 61 -20 73 3 11 20 -2 44
-29 54 -12 4 -11 6 3 6 24 1 21 22 -4 28 -12 4 -40 16 -63 28 l-41 22 -18 -23z
m48 -84 c3 -5 1 -10 -4 -10 -6 0 -11 5 -11 10 0 6 2 10 4 10 3 0 8 -4 11 -10z
m55 0 c0 -5 -4 -10 -10 -10 -5 0 -10 5 -10 10 0 6 5 10 10 10 6 0 10 -4 10
-10z"/>
<path d="M3349 3338 c-60 -22 -60 -22 -50 -105 1 -17 41 -16 64 1 12 9 28 11
51 6 29 -6 32 -5 31 13 -1 11 -15 31 -31 45 l-29 24 38 -5 c41 -6 46 1 19 26
-22 20 -22 20 -93 -5z"/>
<path d="M3216 3179 c-28 -33 -30 -38 -18 -54 13 -19 58 -3 46 16 -4 6 -11 6
-20 -2 -11 -9 -14 -8 -14 3 0 7 9 21 20 31 18 15 27 37 16 37 -2 0 -16 -14
-30 -31z"/>
<path d="M3300 3185 c7 -8 17 -15 22 -15 6 0 5 7 -2 15 -7 8 -17 15 -22 15 -6
0 -5 -7 2 -15z"/>
<path d="M3290 3131 c0 -12 28 -22 35 -12 3 5 -2 12 -11 15 -21 8 -24 8 -24
-3z"/>
<path d="M3330 3100 c0 -5 5 -10 11 -10 5 0 7 5 4 10 -3 6 -8 10 -11 10 -2 0
-4 -4 -4 -10z"/>
<path d="M3211 3068 c-66 -11 -70 -23 -11 -34 23 -5 31 -4 26 4 -4 7 7 11 34
10 22 0 40 -4 40 -9 0 -5 10 -9 23 -9 23 0 55 16 47 23 -10 9 -99 24 -94 16 3
-5 1 -9 -5 -9 -5 0 -11 4 -13 8 -1 4 -23 5 -47 0z"/>
<path d="M1595 2940 c-7 -11 -1 -12 68 -14 40 -1 45 1 30 12 -20 14 -89 16
-98 2z"/>
<path d="M1633 2881 c-19 -5 -20 -8 -7 -25 12 -17 17 -18 39 -6 14 7 25 17 25
21 0 10 -32 16 -57 10z"/>
<path d="M1385 2850 c-4 -7 -2 -17 5 -23 10 -9 11 -9 6 0 -3 6 -2 14 3 18 5 3
14 -2 19 -11 11 -20 46 -12 40 9 -6 16 -64 22 -73 7z"/>
<path d="M3448 2830 c2 -16 6 -30 8 -30 2 0 4 14 4 30 0 17 -4 30 -8 30 -5 0
-7 -13 -4 -30z"/>
<path d="M3100 2779 c0 -37 45 -131 77 -160 l26 -24 -27 37 c-15 20 -38 68
-52 105 -15 44 -24 59 -24 42z"/>
<path d="M612 2749 c-33 -12 -26 -29 11 -29 17 0 48 -4 66 -10 68 -19 47 10
-25 36 -18 6 -40 7 -52 3z"/>
<path d="M4560 2752 c0 -12 19 -26 26 -19 2 2 -2 10 -11 17 -9 8 -15 8 -15 2z"/>
<path d="M4476 2731 c-10 -11 -16 -26 -13 -33 4 -10 6 -10 6 1 1 8 8 23 18 33
9 10 14 18 11 18 -3 0 -13 -9 -22 -19z"/>
<path d="M3421 2733 c-1 -7 -17 -38 -36 -70 -36 -59 -47 -94 -19 -58 27 35 65
116 60 128 -3 9 -5 9 -5 0z"/>
<path d="M603 2685 c-14 -10 -11 -13 21 -19 20 -4 40 -5 45 -2 5 3 11 -1 15
-9 3 -8 10 -15 15 -15 12 0 2 38 -12 47 -19 11 -67 10 -84 -2z"/>
<path d="M4480 2694 c0 -28 75 -84 112 -84 7 0 -8 10 -32 23 -42 21 -72 58
-36 44 9 -4 16 -3 16 2 0 5 -10 11 -22 15 -29 7 -38 7 -38 0z"/>
<path d="M0 2673 c0 -15 21 -23 130 -47 72 -16 133 -33 136 -37 5 -9 -45 -231
-55 -241 -3 -3 -52 4 -109 16 l-102 23 0 -32 0 -31 116 -25 c63 -14 117 -22
119 -19 8 12 78 331 74 335 -2 2 -65 17 -139 34 -74 18 -143 34 -152 37 -13 4
-18 0 -18 -13z m200 -353 c0 -5 -5 -10 -11 -10 -5 0 -7 5 -4 10 3 6 8 10 11
10 2 0 4 -4 4 -10z"/>
<path d="M4720 2663 c0 -8 -16 -11 -52 -8 -29 2 -43 2 -31 -1 12 -3 24 -12 27
-20 5 -14 -4 -18 -37 -14 -16 1 -16 -1 -5 -19 17 -28 29 -26 63 9 15 16 32 27
36 24 12 -7 18 11 8 26 -5 10 -9 11 -9 3z"/>
<path d="M1612 2629 c-12 -19 -11 -19 7 -10 26 14 36 31 19 31 -7 0 -19 -9
-26 -21z"/>
<path d="M0 2523 l0 -120 97 -22 c53 -12 99 -18 103 -14 14 14 52 205 44 213
-5 4 -51 17 -102 29 -52 12 -104 24 -118 27 l-24 6 0 -119z"/>
<path d="M787 2633 c-16 -15 -3 -103 15 -103 6 0 7 11 4 26 -6 23 -4 26 13 21
14 -3 21 0 21 9 0 19 30 18 58 -2 21 -14 22 -14 22 5 0 11 -10 27 -22 35 -22
16 -99 22 -111 9z"/>
<path d="M1472 2620 c7 -11 16 -20 19 -20 4 0 5 9 2 20 -3 11 -12 20 -19 20
-12 0 -12 -4 -2 -20z"/>
<path d="M2595 2631 c-15 -6 -8 -9 30 -14 28 -4 65 -9 83 -13 45 -9 41 12 -5
25 -44 12 -79 13 -108 2z"/>
<path d="M2843 2625 c-36 -15 -44 -35 -15 -35 12 0 10 -4 -8 -13 -17 -9 -26
-22 -28 -45 -2 -18 1 -32 7 -32 6 0 11 5 11 10 0 6 7 10 16 10 8 0 13 4 10 8
-3 5 8 7 23 4 16 -2 31 0 34 5 11 18 -5 52 -27 56 -17 3 -16 5 11 12 21 5 30
12 26 21 -6 17 -19 17 -60 -1z"/>
<path d="M430 2593 c0 -5 9 -18 20 -28 11 -10 20 -14 20 -8 0 5 -9 18 -20 28
-11 10 -20 14 -20 8z"/>
<path d="M2606 2579 c-15 -9 -16 -13 -5 -20 17 -11 66 -12 72 -1 2 4 2 2 1 -5
-5 -21 18 -27 32 -8 12 15 11 20 -4 31 -21 16 -70 17 -96 3z"/>
<path d="M695 2570 c-3 -5 -1 -10 4 -10 6 0 11 5 11 10 0 6 -2 10 -4 10 -3 0
-8 -4 -11 -10z"/>
<path d="M770 2500 c0 -5 5 -10 10 -10 6 0 10 5 10 10 0 6 -4 10 -10 10 -5 0
-10 -4 -10 -10z"/>
<path d="M3665 2480 c-4 -7 2 -9 19 -4 16 4 26 2 26 -5 0 -6 -5 -11 -12 -11
-6 0 -9 -3 -5 -6 3 -3 15 -3 26 1 18 5 19 8 7 21 -17 16 -52 19 -61 4z"/>
<path d="M936 2464 c-4 -9 -4 -19 -1 -22 2 -3 7 3 11 12 4 9 4 19 1 22 -2 3
-7 -3 -11 -12z"/>
<path d="M2800 2468 c0 -10 5 -18 10 -18 6 0 10 -7 10 -15 0 -8 5 -15 10 -15
15 0 12 12 -10 40 -16 20 -20 22 -20 8z"/>
<path d="M620 2450 c0 -5 7 -10 16 -10 8 0 12 5 9 10 -3 6 -10 10 -16 10 -5 0
-9 -4 -9 -10z"/>
<path d="M760 2410 c20 -13 53 -13 45 0 -3 6 -18 10 -33 10 -21 0 -24 -2 -12
-10z"/>
<path d="M2627 2383 c-12 -11 -7 -23 7 -17 8 3 17 1 21 -5 3 -6 11 -11 17 -11
7 0 2 9 -10 20 -23 22 -26 23 -35 13z"/>
<path d="M3785 2380 c-3 -5 -1 -10 4 -10 6 0 11 5 11 10 0 6 -2 10 -4 10 -3 0
-8 -4 -11 -10z"/>
<path d="M2790 2361 c0 -12 -9 -21 -22 -24 -16 -4 -13 -5 7 -4 19 1 29 -3 28
-11 -4 -18 14 -15 21 4 12 32 6 54 -14 54 -13 0 -20 -7 -20 -19z"/>
<path d="M1676 2293 c-3 -21 -6 -58 -6 -82 0 -37 -7 -54 -42 -100 -24 -30 -46
-60 -50 -66 -5 -6 -11 -5 -18 5 -8 12 -10 12 -10 -5 0 -11 5 -40 11 -65 7 -31
7 -46 0 -48 -6 -2 -11 -8 -11 -13 0 -6 5 -7 10 -4 15 9 12 -23 -10 -103 -24
-85 -26 -159 -5 -188 28 -42 75 -139 75 -159 1 -11 8 -31 16 -45 11 -17 13
-19 9 -5 -4 11 -10 40 -14 65 -4 25 -24 77 -45 115 -35 66 -37 74 -31 130 7
66 39 186 60 225 7 14 16 52 20 85 4 34 18 78 32 103 24 42 30 61 39 112 4 23
3 22 -11 -5 -15 -29 -15 -29 -9 28 7 64 0 78 -10 20z"/>
<path d="M0 2291 c0 -28 17 -35 29 -12 8 15 7 20 -5 25 -23 9 -24 8 -24 -13z"/>
<path d="M5325 2300 c-4 -6 13 -10 44 -10 28 0 51 5 51 10 0 6 -20 10 -44 10
-25 0 -48 -4 -51 -10z"/>
<path d="M5555 2300 c-4 -6 17 -10 57 -10 44 0 59 3 48 10 -20 13 -97 13 -105
0z"/>
<path d="M1541 2262 c-7 -13 -11 -26 -8 -28 8 -8 29 25 25 38 -3 8 -9 4 -17
-10z"/>
<path d="M5346 2258 c-28 -16 -17 -23 34 -23 28 0 49 4 47 10 -5 14 -62 23
-81 13z"/>
<path d="M2580 2250 c0 -5 5 -10 12 -10 6 0 9 -3 5 -6 -12 -12 24 -36 62 -41
53 -7 61 12 14 33 -21 9 -43 16 -50 15 -6 -1 -14 3 -18 9 -8 13 -25 13 -25 0z"/>
<path d="M5557 2253 c-17 -16 -3 -23 43 -23 49 0 66 12 34 24 -21 8 -69 8 -77
-1z"/>
<path d="M0 2235 c0 -10 10 -15 30 -15 35 0 40 15 8 24 -34 9 -38 8 -38 -9z"/>
<path d="M2754 2217 c-12 -6 -25 -27 -32 -51 -6 -23 -14 -50 -18 -60 -5 -14
-4 -17 4 -12 18 11 14 -2 -9 -35 -11 -16 -27 -29 -35 -29 -17 0 -17 2 1 -50
11 -30 12 -46 5 -56 -8 -8 -8 -14 0 -19 5 -3 11 -4 11 -1 3 11 7 26 9 34 1 4
2 18 1 32 l-1 25 12 -25 c6 -14 10 -33 9 -42 -1 -10 3 -18 8 -18 6 0 11 -10
11 -21 0 -18 -2 -19 -15 -9 -19 16 -19 11 4 -40 17 -37 19 -39 24 -18 4 12 2
25 -3 28 -5 3 -5 12 -1 19 5 7 14 10 20 7 21 -13 11 5 -16 30 -26 22 -27 25
-10 35 9 5 17 16 17 24 0 20 30 47 47 41 8 -3 11 -1 8 4 -3 6 0 10 9 10 8 0
16 -6 19 -12 3 -10 9 -10 24 -2 17 11 19 9 15 -17 -2 -16 -8 -32 -13 -35 -5
-3 -9 -10 -9 -16 0 -6 14 3 30 20 17 18 30 41 30 53 0 14 5 19 14 16 8 -3 17
1 20 9 3 9 -1 14 -12 15 -9 0 -33 6 -52 13 -33 11 -37 10 -75 -20 -56 -44 -85
-58 -97 -46 -12 12 8 56 21 47 5 -3 19 3 32 13 15 13 19 21 10 26 -6 4 -10 4
-9 -1 2 -4 -1 -9 -6 -10 -5 -1 -13 -7 -18 -15 -5 -7 -8 -8 -5 -3 25 63 33 75
47 70 12 -4 15 4 14 38 -2 75 -1 74 -40 54z"/>
<path d="M2470 2085 c-26 -14 -37 -24 -27 -25 10 0 53 -26 95 -58 122 -93 123
-84 2 20 -37 33 -31 52 13 43 31 -7 31 -6 12 9 -15 12 -16 15 -5 16 13 0 13 1
0 10 -22 15 -40 12 -90 -15z"/>
<path d="M2300 2094 c0 -5 7 -19 15 -30 8 -10 15 -14 15 -8 0 5 -7 19 -15 30
-8 10 -15 14 -15 8z"/>
<path d="M2955 2070 c10 -11 14 -20 9 -20 -5 0 -1 -7 10 -15 10 -7 15 -18 11
-24 -3 -6 1 -11 11 -11 13 0 15 6 10 32 -6 32 -23 51 -38 42 -4 -3 -8 0 -8 5
0 6 -5 11 -12 11 -6 0 -3 -9 7 -20z"/>
<path d="M1714 2048 l-19 -23 25 20 c14 11 27 21 29 22 2 2 0 3 -6 3 -5 0 -18
-10 -29 -22z"/>
<path d="M1818 2053 c7 -3 16 -2 19 1 4 3 -2 6 -13 5 -11 0 -14 -3 -6 -6z"/>
<path d="M1855 2050 c4 -6 11 -8 16 -5 14 9 11 15 -7 15 -8 0 -12 -5 -9 -10z"/>
<path d="M2365 2050 c-8 -13 25 -13 45 0 12 8 9 10 -12 10 -15 0 -30 -4 -33
-10z"/>
<path d="M5390 2051 c0 -21 54 -51 89 -50 40 1 34 4 -21 14 -29 4 -38 11 -38
25 0 11 -7 20 -15 20 -8 0 -15 -4 -15 -9z"/>
<path d="M5540 2049 l25 -10 -25 -14 c-14 -8 -19 -14 -10 -14 8 0 24 6 35 15
17 13 18 16 5 24 -8 5 -24 9 -35 9 -17 0 -16 -2 5 -10z"/>
<path d="M1730 2030 c-9 -6 -10 -10 -3 -10 6 0 15 5 18 10 8 12 4 12 -15 0z"/>
<path d="M2610 2020 c0 -6 7 -10 15 -10 8 0 15 2 15 4 0 2 -7 6 -15 10 -8 3
-15 1 -15 -4z"/>
<path d="M3030 2008 c0 -13 4 -39 10 -58 5 -19 14 -71 18 -115 8 -63 6 -87 -5
-115 -8 -19 -21 -89 -29 -155 -16 -138 -36 -238 -42 -212 -2 9 -8 17 -14 17
-5 0 -7 7 -4 15 4 11 0 15 -12 13 -11 -2 -16 3 -14 15 2 9 -3 17 -10 17 -9 0
-9 3 0 12 19 19 14 33 -6 15 -10 -10 -23 -17 -29 -17 -6 0 -14 -7 -17 -16 -4
-12 -1 -14 14 -9 14 5 22 1 26 -12 3 -10 10 -26 15 -35 8 -15 5 -18 -18 -18
-21 0 -24 -3 -14 -9 10 -7 0 -11 -35 -16 -96 -13 -110 -15 -185 -29 -94 -19
-226 -54 -251 -67 -14 -7 -23 -5 -41 11 -30 29 -121 80 -141 80 -9 0 -16 7
-16 16 0 9 -15 41 -33 73 -42 71 -52 107 -33 118 16 9 29 112 20 150 -11 42
-27 19 -30 -42 -2 -32 -8 -63 -14 -69 -19 -19 -10 -93 19 -163 28 -68 28 -70
10 -92 -29 -36 -25 -52 12 -46 18 3 28 2 25 -4 -4 -5 20 -8 56 -7 39 2 75 -3
96 -12 36 -16 42 -32 13 -32 -11 0 -23 -4 -26 -10 -11 -17 -42 -11 -48 9 -4
15 -17 21 -61 26 -31 4 -56 12 -56 17 0 5 -5 6 -10 3 -14 -9 7 -35 26 -35 8 0
14 -7 14 -16 0 -14 -9 -16 -61 -11 -33 3 -63 7 -65 10 -3 3 2 29 11 59 10 36
13 63 7 78 -8 22 -14 23 -74 21 -62 -2 -69 0 -114 34 -34 26 -49 33 -55 24 -5
-8 2 -18 19 -26 15 -8 31 -18 35 -22 13 -13 -60 -43 -112 -46 -61 -3 -111 -15
-111 -27 0 -5 5 -6 10 -3 15 9 12 -8 -5 -31 -18 -24 -19 -53 -2 -56 13 -1 29
-5 37 -8 3 -1 12 -3 21 -5 9 -1 26 -6 38 -10 15 -4 19 -3 16 7 -4 11 12 13 77
11 46 -2 97 -8 113 -14 17 -5 84 -13 150 -16 66 -3 121 -7 123 -8 1 -1 -55
-32 -124 -70 -126 -67 -127 -68 -188 -61 -33 3 -62 10 -64 15 -2 5 -12 7 -22
4 -18 -5 -24 4 -22 28 1 8 -42 5 -49 -4 -3 -4 -18 -3 -33 3 -15 5 -40 10 -55
10 -34 0 -71 37 -71 72 0 29 35 135 51 154 16 19 -25 19 -78 0 -47 -17 -90
-10 -98 14 -3 10 -12 24 -21 30 -11 10 -18 9 -33 -4 -11 -10 -46 -30 -78 -46
l-59 -27 4 -64 c2 -35 12 -82 22 -104 25 -53 30 -90 34 -288 l3 -167 -32 -20
c-40 -25 -55 -25 -55 -1 0 10 -6 34 -14 53 -8 19 -17 81 -19 138 -4 74 -11
121 -26 158 -12 29 -21 61 -21 72 0 12 -11 47 -25 80 -14 33 -27 70 -28 82 -2
12 -9 24 -14 25 -8 3 -8 -7 -1 -34 6 -21 9 -63 8 -93 -3 -52 -3 -111 1 -170 5
-65 -60 -120 -206 -176 -38 -15 -84 -35 -101 -45 -17 -11 -38 -19 -47 -19 -27
0 -67 -22 -67 -37 0 -10 -10 -14 -32 -11 -32 3 -33 2 -32 -32 l2 -35 -13 30
-13 30 -84 -6 c-45 -4 -105 -5 -132 -2 -52 6 -189 64 -203 86 -5 7 -10 -3 -14
-28 l-5 -40 -12 28 c-8 19 -8 35 -2 53 9 22 8 25 -5 20 -11 -4 -15 1 -15 18 0
12 -3 26 -7 30 -10 10 -12 86 -3 111 5 14 2 46 -11 90 -12 43 -18 99 -18 149
0 66 -22 231 -33 242 -9 8 -38 -30 -70 -92 l-38 -71 0 -164 c0 -151 2 -168 24
-214 12 -28 26 -68 30 -89 8 -44 63 -158 109 -226 50 -75 78 -100 119 -106 23
-4 38 -12 38 -20 0 -8 -4 -14 -8 -14 -5 0 -7 -13 -4 -29 4 -32 -24 -154 -38
-159 -5 -2 -6 -10 -3 -18 3 -8 3 -21 0 -29 -5 -11 -12 -8 -34 14 -22 22 -41
29 -90 34 -34 4 -80 13 -102 21 l-41 14 0 -129 0 -129 179 0 179 0 218 124
c424 240 974 558 1379 796 353 207 536 285 760 321 66 10 148 23 181 29 116
19 239 10 487 -36 427 -79 825 -346 1096 -734 66 -95 171 -276 171 -295 0 -6
-73 -53 -162 -105 l-163 -95 408 -3 409 -2 415 245 c229 135 417 244 419 243
1 -2 -1 -23 -6 -48 -19 -97 -80 -426 -80 -433 0 -4 25 -7 55 -7 l55 0 -1 403
-1 402 -26 -77 c-15 -43 -34 -83 -42 -91 -14 -12 -44 -26 -128 -58 -24 -8 -30
-14 -20 -20 10 -6 8 -9 -7 -10 -11 -1 -23 -1 -28 0 -4 0 -6 -5 -5 -11 2 -8 -6
-13 -19 -12 -12 0 -20 -3 -17 -7 6 -10 -77 -33 -190 -54 -50 -9 -97 -20 -107
-25 -14 -8 -17 -2 -23 41 -11 79 -21 99 -54 99 -15 0 -37 -6 -47 -14 -16 -12
-17 -19 -8 -62 6 -27 13 -56 17 -65 4 -10 0 -23 -10 -34 -17 -16 -18 -16 -36
7 -10 12 -26 47 -35 77 -17 51 -17 54 2 67 10 8 29 14 42 14 13 0 23 5 23 10
0 6 9 10 19 10 26 0 124 45 262 120 108 59 153 88 119 76 -37 -12 -105 -15
-177 -6 -324 39 -469 62 -502 79 -25 14 -32 73 -23 191 5 52 8 122 8 155 l-1
59 -60 19 c-33 10 -88 21 -122 24 l-62 6 5 46 4 46 -21 -55 c-37 -95 -49 -170
-36 -212 7 -21 16 -38 21 -38 15 0 -4 -89 -31 -140 -31 -59 -54 -69 -178 -77
-122 -7 -312 25 -364 62 -118 83 -225 152 -292 185 -41 21 -81 45 -87 53 -20
23 -26 164 -10 223 14 49 14 51 -6 50 -14 -1 -26 -15 -40 -52 -13 -30 -26 -49
-33 -47 -8 3 -13 -4 -13 -16 0 -12 5 -21 10 -21 6 0 10 -4 10 -10 0 -5 -5 -9
-11 -7 -6 1 -14 -4 -16 -10 -3 -7 2 -13 11 -13 9 0 16 -4 16 -10 0 -5 -5 -10
-10 -10 -7 0 -7 -6 0 -20 6 -11 18 -20 27 -20 9 0 13 -3 10 -6 -4 -4 -20 -2
-37 5 -16 6 -42 16 -58 21 -25 10 -27 15 -29 70 0 33 3 63 8 66 6 3 5 12 -3
22 -10 12 -10 16 0 19 6 3 12 11 12 18 0 7 4 15 9 17 5 2 12 23 15 48 16 138
20 156 34 166 18 13 25 11 114 -30 57 -26 60 -30 71 -91 2 -11 17 22 35 78 36
109 37 118 19 112 -6 -3 -46 11 -87 31 -91 44 -196 84 -219 84 -10 0 -25 -16
-35 -37 -20 -42 -15 -48 49 -59 42 -7 255 -103 255 -116 0 -8 -51 12 -141 58
-84 42 -186 67 -193 48 -5 -14 52 -64 73 -64 13 0 14 5 -33 -190 -19 -80 -36
-156 -38 -170 -6 -49 -66 -49 -325 1 l-53 10 0 45 c0 41 -1 43 -19 32 -11 -7
-17 -17 -13 -23 14 -23 11 -43 -9 -48 -22 -6 -89 2 -89 11 0 2 9 19 20 37 11
18 22 56 24 86 2 30 13 81 25 115 26 74 38 171 30 244 -3 30 -6 43 -7 28 -3
-42 -20 -43 -27 -1 -3 21 -12 59 -20 84 -8 26 -15 56 -15 68 0 11 -4 21 -10
21 -5 0 -10 -10 -10 -22z m-823 -680 c-3 -8 -6 -5 -6 6 -1 11 2 17 5 13 3 -3
4 -12 1 -19z m2688 -124 c33 -8 65 -20 70 -26 7 -7 4 -9 -10 -5 -76 21 -118
30 -175 37 l-65 7 60 2 c34 0 88 -6 120 -15z m12 -50 c29 -8 54 -18 57 -23 7
-11 -10 -164 -25 -222 l-12 -46 60 -104 c114 -197 115 -199 155 -211 27 -8 38
-18 43 -37 4 -14 17 -48 31 -74 14 -29 22 -58 18 -71 -3 -14 1 -27 10 -35 9
-8 16 -22 16 -32 0 -10 5 -21 12 -25 8 -5 9 -2 5 9 -9 23 -2 21 47 -12 78 -54
78 -52 -39 -121 -58 -34 -107 -61 -108 -59 -43 74 -74 149 -64 153 7 3 -7 3
-30 0 -39 -5 -43 -4 -43 16 0 19 -3 20 -15 10 -20 -16 -38 -2 -32 26 3 19 2
22 -9 13 -18 -15 -29 11 -19 49 l6 27 -21 -22 c-11 -13 -27 -23 -35 -23 -21 0
-19 43 4 71 19 23 19 24 -8 59 -16 19 -47 68 -69 108 -23 39 -60 104 -83 143
l-41 71 6 111 c9 142 26 260 40 269 13 9 73 1 143 -18z m-584 -304 c11 0 17
-8 17 -22 0 -13 -4 -18 -8 -12 -4 5 -28 18 -54 28 -27 10 -48 21 -48 26 0 4
17 2 38 -6 20 -7 45 -13 55 -14z m-3623 -290 c6 -11 8 -20 6 -20 -3 0 -10 9
-16 20 -6 11 -8 20 -6 20 3 0 10 -9 16 -20z m4665 -140 c-11 -5 -29 -9 -40 -9
l-20 0 20 9 c11 5 29 9 40 9 l20 0 -20 -9z m-15 -39 c0 -5 -9 -11 -20 -14 -20
-5 -26 3 -13 16 9 10 33 8 33 -2z"/>
<path d="M4960 497 c-44 -13 -48 -16 -31 -27 17 -10 58 7 65 26 3 8 4 14 3 13
-1 -1 -18 -6 -37 -12z"/>
<path d="M2950 2011 c0 -6 4 -13 10 -16 6 -3 7 1 4 9 -7 18 -14 21 -14 7z"/>
<path d="M1226 2002 c-3 -6 -1 -14 5 -17 14 -9 20 -2 10 14 -6 8 -11 9 -15 3z"/>
<path d="M156 1974 c-4 -9 -4 -19 -1 -22 2 -3 7 3 11 12 4 9 4 19 1 22 -2 3
-7 -3 -11 -12z"/>
<path d="M4991 1918 c-19 -111 -20 -129 -8 -125 11 3 31 176 23 185 -2 1 -9
-25 -15 -60z"/>
<path d="M560 1934 c0 -3 12 -30 26 -60 14 -30 24 -64 21 -75 -3 -11 -1 -87 4
-167 5 -81 12 -205 14 -276 3 -71 10 -157 16 -190 6 -34 14 -108 18 -165 6
-82 11 -106 25 -116 19 -14 31 -53 41 -133 4 -33 11 -52 19 -49 6 2 10 15 8
28 -1 13 -4 56 -6 94 -2 43 -15 105 -34 160 -25 75 -32 119 -43 265 -7 96 -12
198 -10 225 1 28 -3 116 -10 196 -11 142 -11 148 10 191 26 54 26 62 3 56 -11
-3 -30 1 -43 8 -25 14 -59 18 -59 8z"/>
<path d="M2907 1893 c-13 -12 -7 -25 9 -19 8 3 12 2 9 -3 -8 -14 13 -24 33
-16 15 5 14 9 -8 25 -27 21 -33 23 -43 13z"/>
<path d="M4931 1823 c-7 -21 -27 -60 -43 -88 l-30 -50 44 43 c39 37 45 49 46
88 1 24 1 44 -1 44 -2 0 -9 -17 -16 -37z"/>
<path d="M2876 1824 c-4 -13 -4 -29 -2 -33 7 -11 116 -12 116 -1 0 10 -64 20
-68 10 -4 -11 -42 0 -42 12 0 6 29 8 70 6 50 -3 70 -1 70 7 0 8 -21 12 -59 13
-33 0 -64 3 -69 6 -6 3 -13 -6 -16 -20z"/>
<path d="M1527 1833 c-4 -3 -7 -13 -7 -22 1 -13 3 -13 11 2 11 19 8 33 -4 20z"/>
<path d="M3023 1802 c-13 -2 -23 -8 -23 -13 0 -13 37 -11 45 2 9 14 5 16 -22
11z"/>
<path d="M2191 1782 c-1 -13 5 -38 13 -55 8 -18 17 -39 19 -47 3 -8 5 -1 5 15
1 38 -36 122 -37 87z"/>
<path d="M3154 1773 c3 -10 -1 -40 -9 -67 -17 -56 -19 -78 -5 -56 5 8 10 26
11 40 1 14 6 -13 10 -59 5 -47 11 -87 14 -89 2 -2 11 -2 19 1 12 5 14 12 8 29
-5 13 -5 37 -1 53 5 22 7 24 8 9 0 -12 7 -24 15 -27 13 -5 13 -1 2 31 -28 78
-92 197 -72 135z"/>
<path d="M2086 1715 c2 -38 5 -87 6 -107 3 -58 13 -38 23 46 3 22 11 43 17 48
9 5 6 8 -8 8 -15 0 -23 10 -32 38 -10 33 -10 30 -6 -33z"/>
<path d="M1343 1744 c-3 -8 -1 -25 5 -37 10 -20 11 -18 11 16 1 39 -5 48 -16
21z"/>
<path d="M2031 1598 c-12 -51 -23 -101 -24 -110 -1 -10 -5 -18 -10 -18 -4 0
-5 -5 -1 -12 4 -6 -1 -17 -11 -24 -10 -8 -15 -17 -12 -21 4 -3 0 -15 -10 -25
-9 -10 -12 -18 -6 -18 6 0 31 22 57 50 l46 49 0 111 c0 60 -1 110 -3 110 -2 0
-14 -42 -26 -92z"/>
<path d="M5985 1681 c-3 -5 -1 -12 5 -16 5 -3 10 1 10 9 0 18 -6 21 -15 7z"/>
<path d="M5986 1585 c-9 -26 -7 -32 5 -12 6 10 9 21 6 23 -2 3 -7 -2 -11 -11z"/>
<path d="M1550 1541 c0 -6 5 -13 10 -16 6 -3 10 1 10 9 0 9 -4 16 -10 16 -5 0
-10 -4 -10 -9z"/>
<path d="M1690 1530 c0 -4 15 -21 34 -38 l34 -30 -19 -32 c-15 -24 -17 -35 -9
-46 7 -7 9 -17 7 -22 -3 -4 -2 -14 2 -21 6 -9 10 -3 13 17 3 18 0 28 -5 25 -5
-3 -7 0 -3 8 3 8 9 21 12 31 5 13 12 14 35 8 18 -5 27 -5 24 1 -4 5 0 9 7 9 9
0 9 3 -2 10 -13 8 -13 10 0 10 13 0 13 2 0 14 -20 19 -130 67 -130 56z"/>
<path d="M1101 1493 c-1 -12 4 -25 9 -28 12 -7 12 2 0 30 -8 19 -9 19 -9 -2z"/>
<path d="M3165 1460 c3 -5 -3 -13 -12 -19 -14 -8 -15 -10 -3 -10 8 0 23 6 33
13 17 13 16 14 -3 19 -11 3 -18 1 -15 -3z"/>
<path d="M2761 1444 c0 -11 3 -14 6 -6 3 7 2 16 -1 19 -3 4 -6 -2 -5 -13z"/>
<path d="M1596 1416 c3 -9 11 -16 16 -16 13 0 5 23 -10 28 -7 2 -10 -2 -6 -12z"/>
<path d="M1706 1365 c-3 -8 -1 -15 4 -15 5 0 6 -7 3 -17 -4 -10 -2 -14 4 -10
12 8 14 57 3 57 -4 0 -10 -7 -14 -15z"/>
<path d="M2740 1361 c0 -12 5 -21 10 -21 6 0 10 6 10 14 0 8 -4 18 -10 21 -5
3 -10 -3 -10 -14z"/>
<path d="M5828 1203 c-19 -5 -38 -77 -44 -161 -1 -30 -8 -60 -15 -68 -7 -8 -8
-24 -4 -41 7 -24 10 -17 21 46 7 40 17 78 22 83 5 5 51 8 101 6 81 -3 91 -1
91 15 0 15 -12 17 -102 18 -87 1 -98 2 -68 11 19 6 65 8 103 5 l67 -4 0 48 0
49 -77 -1 c-43 -1 -86 -3 -95 -6z"/>
<path d="M0 408 l0 -107 33 -6 c17 -3 53 -9 80 -14 59 -10 60 -1 8 54 -21 22
-57 72 -80 110 l-41 70 0 -107z"/>
<path d="M2875 71 c-38 -10 -90 -31 -115 -45 l-45 -26 320 0 c353 0 354 0 205
55 -102 37 -262 44 -365 16z"/>
</g>
</svg>
