<?xml version="1.0" standalone="no"?>
<!DOCTYPE svg PUBLIC "-//W3C//DTD SVG 20010904//EN"
 "http://www.w3.org/TR/2001/REC-SVG-20010904/DTD/svg10.dtd">
<svg version="1.0" xmlns="http://www.w3.org/2000/svg"
 width="1200.000000pt" height="675.000000pt" viewBox="0 0 1200.000000 675.000000"
 preserveAspectRatio="xMidYMid meet">

<g transform="translate(0.000000,675.000000) scale(0.100000,-0.100000)"
fill="#000000" stroke="none">
<path d="M3890 4091 c-86 -19 -174 -64 -411 -211 -338 -210 -369 -231 -374
-253 -35 -165 -86 -500 -78 -508 5 -5 82 38 171 94 89 56 215 135 280 176 240
151 264 167 310 198 26 17 74 46 106 63 53 28 67 32 122 28 52 -3 70 -9 101
-34 32 -26 72 -81 86 -119 5 -11 28 1 162 83 142 87 165 104 165 122 0 19 -63
124 -100 167 -35 40 -131 110 -198 143 -47 23 -231 72 -259 69 -5 0 -42 -8
-83 -18z"/>
<path d="M4874 3752 c-112 -74 -253 -164 -316 -202 -32 -19 -110 -69 -173
-110 -136 -88 -221 -140 -290 -176 -112 -60 -218 -21 -287 105 -17 31 -18 31
-45 17 -50 -27 -257 -163 -280 -184 l-22 -20 21 -44 c37 -77 105 -157 195
-228 39 -31 161 -82 228 -95 145 -27 280 11 477 137 37 24 154 98 261 166 238
150 243 153 250 194 3 18 22 125 42 238 19 113 37 215 40 228 8 34 -20 27
-101 -26z"/>
<path d="M7268 3422 l-47 -3 -10 -52 c-65 -332 -101 -522 -101 -538 0 -16 7
-19 49 -19 28 0 52 4 55 9 5 8 40 178 66 321 6 30 19 104 31 164 11 59 17 111
12 115 -4 3 -29 5 -55 3z"/>
<path d="M5402 3229 c-68 -11 -105 -31 -136 -72 -36 -47 -47 -83 -47 -159 0
-74 25 -135 67 -163 37 -24 108 -36 159 -26 56 10 56 11 58 53 2 32 1 32 -35
30 -43 -4 -91 19 -113 52 -22 33 -25 95 -8 131 25 52 60 70 133 69 70 0 80 6
80 48 0 24 -5 28 -37 33 -21 4 -45 8 -53 10 -8 1 -39 -1 -68 -6z"/>
<path d="M6375 3220 c-22 -11 -44 -25 -49 -30 -17 -17 -46 -11 -46 9 0 38 -85
45 -100 9 -15 -36 -72 -369 -66 -385 4 -10 19 -13 53 -11 53 3 45 -11 78 142
23 105 39 140 74 165 48 35 84 26 101 -24 10 -32 2 -110 -26 -257 -6 -28 -5
-28 49 -28 64 0 61 -6 88 135 23 120 24 186 4 229 -28 59 -95 78 -160 46z"/>
<path d="M6785 3229 c-42 -10 -55 -23 -55 -55 0 -20 3 -20 55 -11 73 14 115 1
131 -39 7 -17 9 -35 5 -42 -4 -6 -42 -14 -84 -16 -96 -7 -159 -33 -187 -78
-42 -69 -13 -158 57 -177 54 -15 64 -14 118 15 50 26 75 26 75 -1 0 -11 11
-15 39 -15 45 0 47 4 62 99 31 197 33 226 18 256 -26 56 -141 87 -234 64z
m100 -222 c14 -11 16 -21 11 -49 -17 -94 -156 -116 -156 -24 0 48 30 69 121
85 3 1 13 -5 24 -12z"/>
<path d="M7537 3227 c-89 -22 -148 -96 -162 -204 -10 -68 9 -127 54 -176 38
-40 39 -40 122 -45 103 -5 135 6 144 48 4 17 5 33 3 36 -3 2 -30 -1 -61 -7
-66 -14 -100 -7 -133 26 -24 24 -32 69 -14 80 5 3 60 6 122 6 62 0 121 3 130
5 23 7 32 70 18 126 -14 55 -51 92 -105 107 -47 13 -55 13 -118 -2z m113 -79
c15 -16 20 -33 18 -58 l-3 -35 -80 0 c-79 0 -80 0 -83 26 -2 18 6 36 27 57 37
40 89 44 121 10z"/>
<path d="M8123 3230 c-17 -4 -43 -17 -58 -29 -35 -27 -43 -27 -55 3 -8 22 -15
25 -52 23 l-43 -2 -17 -80 c-10 -44 -22 -102 -27 -130 -19 -108 -42 -222 -52
-255 -6 -19 -11 -55 -12 -80 l-2 -45 45 -1 c58 -1 68 8 76 64 7 55 30 148 40
163 4 7 16 2 33 -14 37 -35 64 -47 106 -47 80 0 149 58 180 150 33 98 4 242
-53 265 -37 15 -78 21 -109 15z m16 -90 c4 0 14 -13 24 -29 47 -80 -13 -221
-94 -221 -71 0 -102 102 -57 190 17 33 32 48 58 57 19 7 41 10 48 7 8 -2 17
-4 21 -4z"/>
<path d="M5760 3223 c-42 -9 -106 -60 -125 -100 -41 -84 -37 -202 7 -258 73
-94 255 -84 345 18 37 43 53 91 53 165 0 68 -19 113 -64 147 -30 23 -47 27
-113 30 -43 2 -89 1 -103 -2z m124 -78 c59 -39 55 -163 -9 -230 -92 -98 -197
26 -136 161 33 74 94 102 145 69z"/>
</g>
</svg>
